<svg width="80" height="56" viewBox="0 0 80 56" fill="none" xmlns="http://www.w3.org/2000/svg">
<path fill-rule="evenodd" clip-rule="evenodd" d="M33.9809 0.239837C31.8964 4.28808 27.7547 11.2583 25.2289 15.8159L24.2944 17.5299L23.8568 17.1025C23.3046 16.3357 15.0844 1.57725 14.2282 0L5 0.10235C5.21299 0.826342 20.7686 27.3327 22.9201 31.2059C23.1096 31.5472 23.2962 31.8505 23.4937 32.2082C23.5977 32.3964 23.6216 32.4792 23.7677 32.7201L24.2104 33.2893C24.7373 32.6496 25.6141 30.9363 26.0407 30.1653C26.6637 29.0393 27.2682 28.1257 27.8895 26.9882C31.1508 21.0182 35.2061 13.9514 38.7167 8.0074L50.684 8.01238C53.6544 8.23892 57.9355 7.53395 60.5779 8.56734C62.5932 9.35552 63.6561 10.4321 64.6576 12.1723C65.8656 14.2714 66.0467 16.8232 65.0764 19.0658C64.4023 20.6239 63.6907 21.4988 63.0975 21.9811C60.4173 24.1605 59.7704 23.7423 55.3913 24.0401L55.2328 24.4978L54.418 24.5122C55.2661 24.3115 54.9023 24.6538 55.873 26.0215C56.6445 27.1084 57.2983 28.4094 58.243 29.3064C58.7764 29.8127 59.3024 30.6376 59.1403 31.3669C60.2761 31.3065 60.5806 31.0262 61.0532 31.5424C66.148 29.9288 67.2332 29.1144 70.1559 25.7219C71.9278 23.6649 73.2733 19.7649 73.4465 17.0112C73.8549 10.5185 70.17 4.451 64.5591 1.79003C60.3174 -0.221699 55.9595 0.169209 50.0695 0.149258C48.0673 0.142466 34.7042 -0.0937795 33.9809 0.239837ZM26.4408 37.5376H26.4403C26.442 37.5434 26.4453 37.5519 26.4479 37.5592L26.4549 37.579L26.4551 37.5797C26.4742 37.6323 26.4982 37.6854 26.5268 37.7404C27.3506 39.4719 33.5555 50.2457 35.5947 53.9167C35.7842 54.258 35.9708 54.5613 36.1683 54.9189C36.2723 55.1072 36.2962 55.19 36.4423 55.4308L36.885 56C36.9086 55.9714 36.9328 55.9406 36.9577 55.9079C36.9814 55.9228 37.0179 55.9793 37.0459 56C39.9796 50.8236 43.1432 45.7376 46.1551 40.6647L49.8058 34.5357C50.6698 33.0413 51.0377 31.9186 51.9616 31.8876L61.0532 31.5424C60.5806 31.0262 60.2761 31.3065 59.1403 31.3669C59.3024 30.6376 58.7764 29.8127 58.243 29.3064C57.2983 28.4094 56.6445 27.1084 55.873 26.0215C54.9023 24.6538 55.2661 24.3115 54.418 24.5122L55.2328 24.4978L55.3913 24.0401L46.824 24.0325L43.2961 30.0946C41.854 32.422 40.8142 34.0445 39.5001 36.5362L37.0291 40.6701L35.2366 37.4963C37.7851 33.1422 40.5063 28.4241 40.813 27.9108C43.1403 24.0156 46.0068 18.7093 48.2845 15.0424C48.6755 14.4128 50.5549 11.1716 50.7408 10.6613L41.7059 10.6518L31.4303 28.474C31.4057 28.5132 31.3345 28.6237 31.309 28.6624C29.913 30.7817 28.0885 34.1483 26.7467 36.4036C26.4194 36.9537 26.3495 37.2447 26.4408 37.5376Z" fill="#2B2A29"/>
</svg>
