<svg width="49" height="40" viewBox="0 0 49 40" fill="none" xmlns="http://www.w3.org/2000/svg">
<g clip-path="url(#clip0_1_2)">
<path fill-rule="evenodd" clip-rule="evenodd" d="M20.7377 0.171312C19.2461 3.06292 16.2825 8.04163 14.4751 11.297L13.8064 12.5214L13.4933 12.2161C13.0981 11.6683 7.21606 1.12661 6.60341 0L0 0.0731073C0.152406 0.590244 11.2835 19.5234 12.823 22.29C12.9586 22.5337 13.0921 22.7504 13.2335 23.0058C13.3079 23.1403 13.3249 23.1995 13.4295 23.3715L13.7463 23.778C14.1233 23.3212 14.7508 22.0974 15.056 21.5466C15.5018 20.7423 15.9343 20.0898 16.3789 19.2773C18.7126 15.013 21.6145 9.96526 24.1265 5.71957L32.6899 5.72313C34.8154 5.88494 37.8788 5.38139 39.7696 6.11953C41.2117 6.68252 41.9723 7.45147 42.6889 8.6945C43.5533 10.1939 43.6829 12.0166 42.9886 13.6184C42.5062 14.7313 41.997 15.3563 41.5725 15.7008C39.6547 17.2575 39.1918 16.9588 36.0582 17.1715L35.9448 17.4984L35.3618 17.5087C35.9687 17.3654 35.7084 17.6098 36.403 18.5868C36.955 19.3631 37.4228 20.2924 38.0988 20.9331C38.4805 21.2948 38.8569 21.884 38.7409 22.405C39.5537 22.3618 39.7715 22.1615 40.1097 22.5303C43.7554 21.3777 44.5319 20.796 46.6233 18.3728C47.8912 16.9035 48.854 14.1178 48.9779 12.1509C49.2702 7.51322 46.6333 3.17928 42.6184 1.27859C39.5832 -0.158357 36.4649 0.120864 32.2502 0.106613C30.8175 0.101761 21.2553 -0.0669854 20.7377 0.171312ZM15.3423 26.8126H15.3419C15.3431 26.8167 15.3455 26.8228 15.3473 26.828L15.3524 26.8422L15.3525 26.8426C15.3662 26.8802 15.3834 26.9181 15.4038 26.9574C15.9933 28.1942 20.4333 35.8898 21.8925 38.5119C22.0281 38.7557 22.1616 38.9724 22.303 39.2278C22.3774 39.3623 22.3944 39.4214 22.499 39.5934L22.8158 40C22.8326 39.9796 22.85 39.9576 22.8678 39.9342C22.8848 39.9449 22.9109 39.9852 22.931 40C25.0302 36.3026 27.2939 32.6697 29.4492 29.0462L32.0615 24.6683C32.6797 23.6009 32.943 22.799 33.6041 22.7769L40.1097 22.5303C39.7715 22.1615 39.5537 22.3618 38.7409 22.405C38.8569 21.884 38.4805 21.2948 38.0988 20.9331C37.4228 20.2924 36.955 19.3631 36.403 18.5868C35.7084 17.6098 35.9687 17.3654 35.3618 17.5087L35.9448 17.4984L36.0582 17.1715L29.9278 17.1661L27.4033 21.4961C26.3714 23.1586 25.6274 24.3175 24.6871 26.0973L22.9189 29.0501L21.6363 26.7831C23.4599 23.673 25.4071 20.3029 25.6265 19.9363C27.2919 17.154 29.343 13.3638 30.9729 10.7446C31.2527 10.2949 32.5975 7.9797 32.7305 7.61523L26.2655 7.60843L18.9126 20.3386C18.895 20.3666 18.8441 20.4455 18.8258 20.4732C17.8269 21.987 16.5213 24.3916 15.5612 26.0026C15.327 26.3955 15.2769 26.6034 15.3423 26.8126Z" fill="#2B2A29"/>
</g>
<defs>
<clipPath id="clip0_1_2">
<rect width="49" height="40" fill="white"/>
</clipPath>
</defs>
</svg>
