<?xml version="1.0" encoding="UTF-8"?>
<!DOCTYPE svg PUBLIC "-//W3C//DTD SVG 1.1//EN" "http://www.w3.org/Graphics/SVG/1.1/DTD/svg11.dtd">
<!-- Creator: CorelDRAW -->
<svg xmlns="http://www.w3.org/2000/svg" xml:space="preserve" width="297mm" height="210mm" style="shape-rendering:geometricPrecision; text-rendering:geometricPrecision; image-rendering:optimizeQuality; fill-rule:evenodd; clip-rule:evenodd"
viewBox="0 0 297 210"
 xmlns:xlink="http://www.w3.org/1999/xlink">
 <defs>
  <style type="text/css">
   <![CDATA[
    .fil0 {fill:#2B2A29}
   ]]>
  </style>
 </defs>
 <g id="Layer_x0020_1">
  <metadata id="CorelCorpID_0Corel-Layer"/>
  <path class="fil0" d="M133.716 26.9408c-5.8616,11.3833 -17.5076,30.9829 -24.6098,43.7984l-2.6279 4.8198 -1.2304 -1.2018c-1.5529,-2.1564 -24.6672,-43.6557 -27.0747,-48.0908l-25.949 0.2878c0.5989,2.0358 44.3399,76.5694 50.3897,87.4605 0.533,0.9597 1.0576,1.8126 1.613,2.8182 0.2924,0.5293 0.3595,0.7622 0.7705,1.4394l1.2448 1.6005c1.4815,-1.7985 3.9471,-6.6162 5.1466,-8.7844 1.7517,-3.1662 3.4515,-5.7351 5.1987,-8.9336 9.1705,-16.7872 20.5737,-36.6584 30.4451,-53.3723l33.6509 0.014c8.3525,0.637 20.3907,-1.3453 27.8208,1.5605 5.6668,2.2163 8.6556,5.2434 11.4716,10.1368 3.397,5.9026 3.9063,13.0779 1.1779,19.3838 -1.8957,4.3813 -3.8967,6.8415 -5.5646,8.1977 -7.5365,6.1282 -9.3556,4.9522 -21.6692,5.7896l-0.4457 1.287 -2.2911 0.0406c2.3848,-0.5642 1.3619,0.3981 4.0914,4.244 2.1693,3.0563 4.0077,6.7145 6.6642,9.2368 1.4997,1.4238 2.9788,3.7434 2.5232,5.7941 3.1937,-0.1699 4.0498,-0.9582 5.3789,0.4934 14.326,-4.5372 17.3775,-6.8272 25.5958,-16.3666 4.9825,-5.7841 8.766,-16.7507 9.253,-24.4938 1.1483,-18.2569 -9.2134,-35.3182 -24.9905,-42.8006 -11.9273,-5.6568 -24.1813,-4.5576 -40.7436,-4.6137 -5.6299,-0.0191 -43.2059,-0.6834 -45.2396,0.2547zm-21.2022 104.878l-0.0014 0c0.0048,0.0164 0.0141,0.0403 0.0213,0.0607l0.0197 0.0558 0.0006 0.0018c0.0537,0.1479 0.1213,0.2972 0.2017,0.4519 2.3164,4.8688 19.764,35.1637 25.498,45.4863 0.533,0.9597 1.0576,1.8126 1.613,2.8182 0.2924,0.5293 0.3595,0.7622 0.7705,1.4394l1.2448 1.6005c0.0662,-0.0804 0.1345,-0.167 0.2044,-0.2589 0.0666,0.0418 0.1692,0.2008 0.2481,0.2589 8.2492,-14.5555 17.1449,-28.857 25.6142,-43.1214l10.2655 -17.2344c2.4295,-4.202 3.464,-7.359 6.0618,-7.4461l25.5649 -0.9708c-1.3291,-1.4516 -2.1852,-0.6633 -5.3789,-0.4934 0.4556,-2.0507 -1.0235,-4.3703 -2.5232,-5.7941 -2.6565,-2.5223 -4.4949,-6.1805 -6.6642,-9.2368 -2.7295,-3.8459 -1.7066,-4.8082 -4.0914,-4.244l2.2911 -0.0406 0.4457 -1.287 -24.0905 -0.0212 -9.9202 17.0461c-4.0549,6.5446 -6.9789,11.1069 -10.6739,18.1133l-6.9483 11.6242 -5.0402 -8.9246c7.1662,-12.2434 14.8178,-25.5103 15.6802,-26.9536 6.5442,-10.9529 14.6045,-25.8737 21.0093,-36.1848 1.0995,-1.7703 6.3842,-10.8843 6.9068,-12.3191l-25.4052 -0.0268 -28.8942 50.1144c-0.069,0.1103 -0.2692,0.4211 -0.341,0.5299 -3.9254,5.9593 -9.0559,15.4257 -12.8289,21.7675 -0.9203,1.5469 -1.1169,2.3652 -0.8601,3.1887z"/>
 </g>
</svg>
